<svg xmlns="http://www.w3.org/2000/svg" width="64" height="64" viewBox="0 0 64 64" role="img" aria-label="TeleMed+ Heart">
  <title>TeleMed+ Heart</title>
  <defs>
    <style>
      .heart { fill: #1e66f5; }
      .pulse { fill: none; stroke: #ffffff; stroke-width: 4; stroke-linecap: round; stroke-linejoin: round; }
    </style>
  </defs>
  <!-- Heart shape -->
  <path class="heart" d="M32 57c-.9 0-1.8-.3-2.5-.9C22.2 50.9 12.6 43 7.7 35.7 3.6 29.7 4.4 21.7 9.1 16.9c4.3-4.4 11.1-5.1 16.2-1.9 1.5.9 2.8 2.2 3.7 3.7.9-1.5 2.1-2.9 3.7-3.7 5.1-3.2 11.9-2.5 16.2 1.9 4.7 4.8 5.5 12.7 1.4 18.8C51.4 43 41.8 50.9 34.5 56.1c-.7.6-1.6.9-2.5.9z"/>
  <!-- Pulse line -->
  <path class="pulse" d="M14 34h8l3-8 5 12 4-7h16"/>
</svg>
